<svg width="330.0" height="270.0" xmlns="http://www.w3.org/2000/svg">
<g transform="translate(15.0 15.0)">
<rect x="0" y="0" width="300.0" height="240.0" fill="transparent" stroke="black" stroke-width="1.0" />
<circle cx="30.0" cy="90.0" r="10.0" stroke="#B0B0B0" stroke-width="1.0" fill="transparent" />
<circle cx="90.0" cy="150.0" r="10.0" stroke="#B0B0B0" stroke-width="1.0" fill="transparent" />
<circle cx="210.0" cy="150.0" r="10.0" stroke="#B0B0B0" stroke-width="1.0" fill="transparent" />
<circle cx="30.0" cy="30.0" r="10.0" stroke="#B0B0B0" stroke-width="1.0" fill="transparent" />
<circle cx="90.0" cy="210.0" r="10.0" stroke="#B0B0B0" stroke-width="1.0" fill="transparent" />
<circle cx="210.0" cy="210.0" r="10.0" stroke="#B0B0B0" stroke-width="1.0" fill="transparent" />
<circle cx="210.0" cy="30.0" r="10.0" stroke="#B0B0B0" stroke-width="1.0" fill="transparent" />
<circle cx="210.0" cy="90.0" r="10.0" stroke="#B0B0B0" stroke-width="1.0" fill="transparent" />
<circle cx="150.0" cy="90.0" r="10.0" stroke="#B0B0B0" stroke-width="1.0" fill="transparent" />
<circle cx="150.0" cy="30.0" r="10.0" stroke="#B0B0B0" stroke-width="1.0" fill="transparent" />
<circle cx="150.0" cy="210.0" r="10.0" stroke="#B0B0B0" stroke-width="1.0" fill="transparent" />
<circle cx="270.0" cy="210.0" r="10.0" stroke="#B0B0B0" stroke-width="1.0" fill="transparent" />
<circle cx="150.0" cy="150.0" r="10.0" stroke="#B0B0B0" stroke-width="1.0" fill="transparent" />
<circle cx="270.0" cy="150.0" r="10.0" stroke="#B0B0B0" stroke-width="1.0" fill="transparent" />
<circle cx="90.0" cy="30.0" r="10.0" stroke="#B0B0B0" stroke-width="1.0" fill="transparent" />
<circle cx="30.0" cy="210.0" r="10.0" stroke="#B0B0B0" stroke-width="1.0" fill="transparent" />
<circle cx="270.0" cy="90.0" r="10.0" stroke="#B0B0B0" stroke-width="1.0" fill="transparent" />
<circle cx="90.0" cy="90.0" r="10.0" stroke="#B0B0B0" stroke-width="1.0" fill="transparent" />
<circle cx="30.0" cy="150.0" r="10.0" stroke="#B0B0B0" stroke-width="1.0" fill="transparent" />
<circle cx="270.0" cy="30.0" r="10.0" stroke="#B0B0B0" stroke-width="1.0" fill="transparent" />
<line x1="150.0" y1="90.0" x2="210.0" y2="90.0" stroke="#B0B0B0" stroke-width="1.0" />
<line x1="150.0" y1="30.0" x2="210.0" y2="30.0" stroke="#B0B0B0" stroke-width="1.0" />
<line x1="210.0" y1="90.0" x2="270.0" y2="90.0" stroke="#B0B0B0" stroke-width="1.0" />
<line x1="30.0" y1="210.0" x2="90.0" y2="210.0" stroke="#B0B0B0" stroke-width="1.0" />
<line x1="210.0" y1="30.0" x2="270.0" y2="30.0" stroke="#B0B0B0" stroke-width="1.0" />
<line x1="30.0" y1="150.0" x2="90.0" y2="150.0" stroke="#B0B0B0" stroke-width="1.0" />
<line x1="150.0" y1="150.0" x2="210.0" y2="150.0" stroke="#B0B0B0" stroke-width="1.0" />
<line x1="90.0" y1="210.0" x2="150.0" y2="210.0" stroke="#B0B0B0" stroke-width="1.0" />
<line x1="90.0" y1="30.0" x2="150.0" y2="30.0" stroke="#B0B0B0" stroke-width="1.0" />
<line x1="210.0" y1="150.0" x2="270.0" y2="150.0" stroke="#B0B0B0" stroke-width="1.0" />
<line x1="90.0" y1="90.0" x2="150.0" y2="90.0" stroke="#B0B0B0" stroke-width="1.0" />
<line x1="150.0" y1="210.0" x2="210.0" y2="210.0" stroke="#B0B0B0" stroke-width="1.0" />
<line x1="30.0" y1="30.0" x2="90.0" y2="30.0" stroke="#B0B0B0" stroke-width="1.0" />
<line x1="210.0" y1="210.0" x2="270.0" y2="210.0" stroke="#B0B0B0" stroke-width="1.0" />
<line x1="30.0" y1="90.0" x2="90.0" y2="90.0" stroke="#B0B0B0" stroke-width="1.0" />
<line x1="90.0" y1="150.0" x2="150.0" y2="150.0" stroke="#B0B0B0" stroke-width="1.0" />
<line x1="130.0" y1="70.0" x2="170.0" y2="110.0" stroke="red" stroke-width="1.0" />
<line x1="170.0" y1="70.0" x2="130.0" y2="110.0" stroke="red" stroke-width="1.0" />
<line x1="130.0" y1="130.0" x2="170.0" y2="170.0" stroke="red" stroke-width="1.0" />
<line x1="170.0" y1="130.0" x2="130.0" y2="170.0" stroke="red" stroke-width="1.0" />
<line x1="30.0" y1="30.0" x2="30.0" y2="90.0" stroke="black" stroke-width="2.0" />
<line x1="30.0" y1="150.0" x2="30.0" y2="210.0" stroke="black" stroke-width="2.0" />
<circle cx="270.0" cy="210.0" r="20" stroke="#008000" stroke-width="1.0" fill="transparent" />
<text x="270.0" y="210.0" font-family="Verdana" font-size="10" color="black">1</text>
<circle cx="270.0" cy="150.0" r="20" stroke="#008000" stroke-width="1.0" fill="transparent" />
<text x="270.0" y="150.0" font-family="Verdana" font-size="10" color="black">2</text>
<rect x="250.0" y="130.0" width="40.0" height="40.0" fill="#008000" fill-opacity="0.5" />
<rect x="250.0" y="170.0" width="40.0" height="10.0" fill="#008000" fill-opacity="0.5" />
<rect x="250.0" y="180.0" width="40.0" height="10.0" fill="#008000" fill-opacity="0.5" />
<rect x="250.0" y="190.0" width="40.0" height="40.0" fill="#008000" fill-opacity="0.5" />
<text x="240.0" y="130.0" font-family="Verdana" font-size="10" color="black">R2</text>
<circle cx="210.0" cy="150.0" r="20" stroke="#808080" stroke-width="1.0" fill="transparent" />
<text x="210.0" y="150.0" font-family="Verdana" font-size="10" color="black">3</text>
<circle cx="90.0" cy="150.0" r="20" stroke="#808080" stroke-width="1.0" fill="transparent" />
<text x="90.0" y="150.0" font-family="Verdana" font-size="10" color="black">2</text>
<circle cx="210.0" cy="90.0" r="20" stroke="#808080" stroke-width="1.0" fill="transparent" />
<text x="210.0" y="90.0" font-family="Verdana" font-size="10" color="black">4</text>
<circle cx="90.0" cy="90.0" r="20" stroke="#808080" stroke-width="1.0" fill="transparent" />
<text x="90.0" y="90.0" font-family="Verdana" font-size="10" color="black">1</text>
<rect x="70.0" y="120.0" width="40.0" height="10.0" fill="#808080" fill-opacity="0.5" />
<rect x="110.0" y="120.0" width="10.0" height="10.0" fill="#808080" fill-opacity="0.5" />
<rect x="70.0" y="130.0" width="40.0" height="40.0" fill="#808080" fill-opacity="0.5" />
<rect x="110.0" y="130.0" width="10.0" height="40.0" fill="#808080" fill-opacity="0.5" />
<rect x="180.0" y="120.0" width="10.0" height="10.0" fill="#808080" fill-opacity="0.5" />
<rect x="190.0" y="120.0" width="40.0" height="10.0" fill="#808080" fill-opacity="0.5" />
<rect x="180.0" y="130.0" width="10.0" height="40.0" fill="#808080" fill-opacity="0.5" />
<rect x="190.0" y="130.0" width="40.0" height="40.0" fill="#808080" fill-opacity="0.5" />
<rect x="120.0" y="120.0" width="10.0" height="10.0" fill="#808080" fill-opacity="0.5" />
<rect x="130.0" y="120.0" width="40.0" height="10.0" fill="#808080" fill-opacity="0.5" />
<rect x="170.0" y="120.0" width="10.0" height="10.0" fill="#808080" fill-opacity="0.5" />
<rect x="120.0" y="130.0" width="10.0" height="40.0" fill="#808080" fill-opacity="0.5" />
<rect x="130.0" y="130.0" width="40.0" height="40.0" fill="#808080" fill-opacity="0.5" />
<rect x="170.0" y="130.0" width="10.0" height="40.0" fill="#808080" fill-opacity="0.5" />
<rect x="180.0" y="70.0" width="10.0" height="40.0" fill="#808080" fill-opacity="0.5" />
<rect x="190.0" y="70.0" width="40.0" height="40.0" fill="#808080" fill-opacity="0.5" />
<rect x="180.0" y="110.0" width="10.0" height="10.0" fill="#808080" fill-opacity="0.5" />
<rect x="190.0" y="110.0" width="40.0" height="10.0" fill="#808080" fill-opacity="0.5" />
<rect x="70.0" y="70.0" width="40.0" height="40.0" fill="#808080" fill-opacity="0.5" />
<rect x="110.0" y="70.0" width="10.0" height="40.0" fill="#808080" fill-opacity="0.5" />
<rect x="70.0" y="110.0" width="40.0" height="10.0" fill="#808080" fill-opacity="0.5" />
<rect x="110.0" y="110.0" width="10.0" height="10.0" fill="#808080" fill-opacity="0.5" />
<rect x="120.0" y="70.0" width="10.0" height="40.0" fill="#808080" fill-opacity="0.5" />
<rect x="130.0" y="70.0" width="40.0" height="40.0" fill="#808080" fill-opacity="0.5" />
<rect x="170.0" y="70.0" width="10.0" height="40.0" fill="#808080" fill-opacity="0.5" />
<rect x="120.0" y="110.0" width="10.0" height="10.0" fill="#808080" fill-opacity="0.5" />
<rect x="130.0" y="110.0" width="40.0" height="10.0" fill="#808080" fill-opacity="0.5" />
<rect x="170.0" y="110.0" width="10.0" height="10.0" fill="#808080" fill-opacity="0.5" />
<text x="60.0" y="70.0" font-family="Verdana" font-size="10" color="black">IC1</text>
<circle cx="270.0" cy="30.0" r="20" stroke="#008000" stroke-width="1.0" fill="transparent" />
<text x="270.0" y="30.0" font-family="Verdana" font-size="10" color="black">1</text>
<circle cx="270.0" cy="90.0" r="20" stroke="#008000" stroke-width="1.0" fill="transparent" />
<text x="270.0" y="90.0" font-family="Verdana" font-size="10" color="black">2</text>
<rect x="250.0" y="60.0" width="40.0" height="10.0" fill="#008000" fill-opacity="0.5" />
<rect x="250.0" y="70.0" width="40.0" height="40.0" fill="#008000" fill-opacity="0.5" />
<rect x="250.0" y="10.0" width="40.0" height="40.0" fill="#008000" fill-opacity="0.5" />
<rect x="250.0" y="50.0" width="40.0" height="10.0" fill="#008000" fill-opacity="0.5" />
<text x="240.0" y="10.0" font-family="Verdana" font-size="10" color="black">R1</text>
</g>
</svg>
